<?xml version="1.0" encoding="UTF-8" standalone="no"?>
<svg width="59px" height="84px" viewBox="0 0 59 84" version="1.1" xmlns="http://www.w3.org/2000/svg" xmlns:xlink="http://www.w3.org/1999/xlink">
    <!-- Generator: Sketch 49.3 (51167) - http://www.bohemiancoding.com/sketch -->
    <title>Shape</title>
    <desc>Created with Sketch.</desc>
    <defs>
        <linearGradient x1="50%" y1="6.56565657%" x2="50.0000006%" y2="106.565657%" id="linearGradient-1">
            <stop stop-color="#FFC501" offset="0%"></stop>
            <stop stop-color="#6885FF" offset="100%"></stop>
        </linearGradient>
    </defs>
    <g id="Page-1" stroke="none" stroke-width="1" fill="none" fill-rule="evenodd">
        <path d="M0,32.4519035 C0.233790127,35.0417089 0.468971861,39.0637029 0.702761988,41.6521286 C18.8702031,46.155658 37.8740005,46.1542783 56.0414416,41.6521286 C56.2766233,39.0637029 56.5104135,35.0417089 56.7442036,32.4519035 C38.1300564,37.1899918 18.6127556,37.1899918 0,32.4519035 Z M3.13807581,44.3412765 L7.62044484,80.3294993 C22.5162158,85.2235002 34.5285751,85.2235002 49.1237588,80.3294993 L53.6061278,44.3412765 C45.3260608,46.1666961 36.8525603,47.0980326 28.3693186,47.0980326 C19.8874685,47.0980326 11.4153596,46.1680759 3.13807581,44.3412765 Z M15.7335189,76.6827994 C15.4273651,72.4621203 15.122603,68.0234395 14.8164493,63.5902776 C14.5353445,59.4965362 14.2542397,55.4096936 13.9731349,51.5035993 L16.0549803,51.3559652 C16.3360851,55.2648191 16.6171899,59.3544212 16.8996863,63.4495423 C17.2044484,67.8813244 17.5092106,72.3186255 17.8153643,76.5351653 L15.7335189,76.6827994 Z M39.8431257,63.4481626 C40.1256221,59.3530414 40.4067269,55.2634393 40.6878317,51.3545854 L42.7696771,51.5022195 C42.4885723,55.4083139 42.2074675,59.4951565 41.9263627,63.5888979 C41.620209,68.0220597 41.3154468,72.4621203 41.0092931,76.6814197 L38.9274477,76.5337856 C39.2322098,72.3172457 39.5383636,67.8799446 39.8431257,63.4481626 Z M29.4144161,77.9797718 L27.3270043,77.9797718 L27.3270043,52.0030716 L29.4144161,52.0030716 L29.4144161,77.9797718 Z M6.95803948,16.3542692 C8.87984999,16.3542692 10.4370592,14.8103203 10.4370592,12.9048747 C10.4370592,10.9994292 8.87984999,9.45548023 6.95803948,9.45548023 C5.03622898,9.45548023 3.47901974,10.9994292 3.47901974,12.9048747 C3.47901974,14.8103203 5.03622898,16.3542692 6.95803948,16.3542692 Z M55.5209803,30.6140661 C54.8390924,27.3440401 51.9181074,24.883932 48.4182136,24.883932 C47.8824445,24.883932 47.3633748,24.9446413 46.8637875,25.0536422 C46.940326,24.6341958 46.986249,24.2023316 46.986249,23.7594294 C46.986249,19.7871067 43.7396278,16.5681317 39.7345803,16.5681317 C38.0730004,16.5681317 36.5464066,17.1269336 35.3231832,18.0582701 C34.436729,15.0807528 31.6632545,12.9048747 28.3707102,12.9048747 C25.0781659,12.9048747 22.3046914,15.0807528 21.4182371,18.0582701 C20.1950138,17.1269336 18.6684199,16.5681317 17.0082317,16.5681317 C13.0017926,16.5681317 9.75517136,19.7871067 9.75517136,23.7594294 C9.75517136,24.2009519 9.79970281,24.6341958 9.87763285,25.0536422 C9.37804562,24.9446413 8.85897587,24.883932 8.32459844,24.883932 C4.82331297,24.883932 1.9037196,27.3440401 1.22183173,30.6140661 C10.0961153,32.8134001 19.2264547,33.9351432 28.3721018,33.9351432 C37.5177489,33.9351432 46.6466967,32.8134001 55.5209803,30.6140661 Z M34.6510366,25.8566612 C35.9688893,26.1602079 37.2700427,25.3378723 37.5692384,24.0395202 L39.6051607,24.5031188 C39.125056,26.5782746 37.2561266,27.988387 35.1937637,27.988387 C34.862561,27.988387 34.5244003,27.9511336 34.1862396,27.8752469 L34.6510366,25.8566612 Z M21.9373069,28.7582919 C19.4435455,28.7582919 17.4145812,26.746605 17.4145812,24.274079 L19.5019931,24.274079 C19.5019931,25.6055453 20.5944053,26.6886552 21.9373069,26.6886552 L21.9373069,28.7582919 Z M21.9331321,6.89878902 C23.8549426,6.89878902 25.4121518,5.35484003 25.4121518,3.44939451 C25.4121518,1.54394898 23.8549426,0 21.9331321,0 C20.0113216,0 18.4541123,1.54394898 18.4541123,3.44939451 C18.4541123,5.35484003 20.0127132,6.89878902 21.9331321,6.89878902 Z M55.5209803,13.9645287 C53.5991698,13.9645287 52.0419605,15.5084777 52.0419605,17.4139232 C52.0419605,19.3193688 53.5991698,20.8633177 55.5209803,20.8633177 C57.4427908,20.8633177 59,19.3193688 59,17.4139232 C59,15.5084777 57.4427908,13.9645287 55.5209803,13.9645287 Z" id="Shape" fill="url(#linearGradient-1)" fill-rule="nonzero"></path>
    </g>
</svg>